<svg width="47" height="52" viewBox="0 0 47 52" fill="none" xmlns="http://www.w3.org/2000/svg">
<mask id="mask0_211_25425" style="mask-type:alpha" maskUnits="userSpaceOnUse" x="0" y="0" width="47" height="21">
<rect width="47" height="21" fill="#D9D9D9"/>
</mask>
<g mask="url(#mask0_211_25425)">
<mask id="path-2-inside-1_211_25425" fill="white">
<path fill-rule="evenodd" clip-rule="evenodd" d="M11.6054 28.4844C11.0139 27.4388 10.5462 26.3244 10.2092 25.1687L7.54063 24.8592C6.66027 24.756 6 24.013 6 23.1325V19.0257C6 18.1452 6.66027 17.4022 7.54063 17.2991L10.0717 17.0101C10.3881 15.7444 10.8695 14.5268 11.5023 13.3849L9.92036 11.3831C9.37014 10.6883 9.42516 9.69768 10.051 9.07169L12.9535 6.16872C13.5794 5.5496 14.5698 5.48769 15.2644 6.03802L17.1558 7.53765C18.3663 6.81535 19.6662 6.26503 21.0281 5.90043L21.3032 3.54091C21.4063 2.66039 22.1491 2 23.0295 2H27.1356C28.0159 2 28.7587 2.66039 28.8619 3.54091L29.137 5.90043C30.4644 6.25815 31.73 6.78783 32.9129 7.48262L34.7356 6.03802C35.4302 5.48769 36.4206 5.54272 37.0465 6.16872L39.9421 9.06481C40.5611 9.6908 40.623 10.6814 40.0728 11.3762L38.5872 13.2542C39.2199 14.3823 39.7151 15.5862 40.0453 16.845L42.4594 17.1271C43.3397 17.2303 44 17.9732 44 18.8537V22.9605C44 23.8411 43.3397 24.584 42.4594 24.6872L40.0109 24.9692C39.667 26.2419 39.1511 27.4594 38.4909 28.6014L40.0796 30.6169C40.6299 31.3117 40.5749 32.3023 39.949 32.9283L37.0465 35.8313C36.4206 36.4504 35.4302 36.5123 34.7356 35.962L32.6929 34.3454C31.5305 34.9989 30.2925 35.5011 28.9995 35.8382L28.6968 38.4591C28.5937 39.3396 27.8509 40 26.9705 40H22.8644C21.9841 40 21.2413 39.3396 21.1381 38.4591L20.8217 35.7419C19.6181 35.3979 18.4626 34.9095 17.3759 34.2835L15.2644 35.9551C14.5698 36.5054 13.5794 36.4504 12.9535 35.8244L10.051 32.9214C9.43204 32.2954 9.37014 31.3049 9.92036 30.6101L11.6054 28.4844ZM25 33C31.0751 33 36 28.0751 36 22C36 15.9249 31.0751 11 25 11C18.9249 11 14 15.9249 14 22C14 28.0751 18.9249 33 25 33Z"/>
</mask>
<path fill-rule="evenodd" clip-rule="evenodd" d="M11.6054 28.4844C11.0139 27.4388 10.5462 26.3244 10.2092 25.1687L7.54063 24.8592C6.66027 24.756 6 24.013 6 23.1325V19.0257C6 18.1452 6.66027 17.4022 7.54063 17.2991L10.0717 17.0101C10.3881 15.7444 10.8695 14.5268 11.5023 13.3849L9.92036 11.3831C9.37014 10.6883 9.42516 9.69768 10.051 9.07169L12.9535 6.16872C13.5794 5.5496 14.5698 5.48769 15.2644 6.03802L17.1558 7.53765C18.3663 6.81535 19.6662 6.26503 21.0281 5.90043L21.3032 3.54091C21.4063 2.66039 22.1491 2 23.0295 2H27.1356C28.0159 2 28.7587 2.66039 28.8619 3.54091L29.137 5.90043C30.4644 6.25815 31.73 6.78783 32.9129 7.48262L34.7356 6.03802C35.4302 5.48769 36.4206 5.54272 37.0465 6.16872L39.9421 9.06481C40.5611 9.6908 40.623 10.6814 40.0728 11.3762L38.5872 13.2542C39.2199 14.3823 39.7151 15.5862 40.0453 16.845L42.4594 17.1271C43.3397 17.2303 44 17.9732 44 18.8537V22.9605C44 23.8411 43.3397 24.584 42.4594 24.6872L40.0109 24.9692C39.667 26.2419 39.1511 27.4594 38.4909 28.6014L40.0796 30.6169C40.6299 31.3117 40.5749 32.3023 39.949 32.9283L37.0465 35.8313C36.4206 36.4504 35.4302 36.5123 34.7356 35.962L32.6929 34.3454C31.5305 34.9989 30.2925 35.5011 28.9995 35.8382L28.6968 38.4591C28.5937 39.3396 27.8509 40 26.9705 40H22.8644C21.9841 40 21.2413 39.3396 21.1381 38.4591L20.8217 35.7419C19.6181 35.3979 18.4626 34.9095 17.3759 34.2835L15.2644 35.9551C14.5698 36.5054 13.5794 36.4504 12.9535 35.8244L10.051 32.9214C9.43204 32.2954 9.37014 31.3049 9.92036 30.6101L11.6054 28.4844ZM25 33C31.0751 33 36 28.0751 36 22C36 15.9249 31.0751 11 25 11C18.9249 11 14 15.9249 14 22C14 28.0751 18.9249 33 25 33Z" fill="#64BECE"/>
<path d="M10.2092 25.1687L12.1293 24.6088L11.7578 23.3349L10.4397 23.182L10.2092 25.1687ZM11.6054 28.4844L13.1727 29.7269L14.0092 28.6717L13.3462 27.4997L11.6054 28.4844ZM7.54063 24.8592L7.30781 26.8456L7.31018 26.8458L7.54063 24.8592ZM7.54063 17.2991L7.3138 15.312L7.30781 15.3127L7.54063 17.2991ZM10.0717 17.0101L10.2985 18.9972L11.6758 18.84L12.012 17.4951L10.0717 17.0101ZM11.5023 13.3849L13.2516 14.3542L13.897 13.1896L13.0714 12.1448L11.5023 13.3849ZM9.92036 11.3831L11.4895 10.143L11.4882 10.1414L9.92036 11.3831ZM10.051 9.07169L11.4654 10.4858L10.051 9.07169ZM12.9535 6.16872L11.547 4.74682L11.5391 4.75463L12.9535 6.16872ZM15.2644 6.03802L16.507 4.47084L16.5064 4.47035L15.2644 6.03802ZM17.1558 7.53765L15.9133 9.10483L16.9951 9.96256L18.1807 9.25514L17.1558 7.53765ZM21.0281 5.90043L21.5453 7.83239L22.8573 7.48114L23.0146 6.13206L21.0281 5.90043ZM21.3032 3.54091L19.3168 3.30817L19.3166 3.30929L21.3032 3.54091ZM28.8619 3.54091L30.8484 3.30929L30.8483 3.30817L28.8619 3.54091ZM29.137 5.90043L27.1505 6.13206L27.3075 7.47876L28.6166 7.83155L29.137 5.90043ZM32.9129 7.48262L31.9001 9.20718L33.0815 9.90105L34.1552 9.05L32.9129 7.48262ZM34.7356 6.03802L33.4936 4.47035L33.4933 4.47063L34.7356 6.03802ZM37.0465 6.16872L35.6322 7.5828L35.6322 7.5828L37.0465 6.16872ZM39.9421 9.06481L41.3642 7.65853L41.3564 7.65072L39.9421 9.06481ZM40.0728 11.3762L38.5049 10.1345L38.5042 10.1354L40.0728 11.3762ZM38.5872 13.2542L37.0186 12.0133L36.1874 13.0641L36.8428 14.2325L38.5872 13.2542ZM40.0453 16.845L38.1107 17.3524L38.457 18.6731L39.8132 18.8315L40.0453 16.845ZM42.4594 17.1271L42.6922 15.1407L42.6915 15.1406L42.4594 17.1271ZM42.4594 24.6872L42.6882 26.674L42.6922 26.6736L42.4594 24.6872ZM40.0109 24.9692L39.782 22.9824L38.4341 23.1376L38.0801 24.4475L40.0109 24.9692ZM38.4909 28.6014L36.7595 27.6003L36.0806 28.7744L36.9202 29.8395L38.4909 28.6014ZM40.0796 30.6169L38.5089 31.8551L38.5118 31.8586L40.0796 30.6169ZM39.949 32.9283L38.5346 31.5142L38.5346 31.5142L39.949 32.9283ZM37.0465 35.8313L38.4531 37.2532L38.4609 37.2454L37.0465 35.8313ZM34.7356 35.962L35.9775 34.3943L35.9767 34.3937L34.7356 35.962ZM32.6929 34.3454L33.934 32.7771L32.8821 31.9446L31.7127 32.6021L32.6929 34.3454ZM28.9995 35.8382L28.4949 33.9028L27.1697 34.2483L27.0127 35.6088L28.9995 35.8382ZM28.6968 38.4591L30.6833 38.6918L30.6836 38.6885L28.6968 38.4591ZM21.1381 38.4591L19.1515 38.6904L19.1517 38.6918L21.1381 38.4591ZM20.8217 35.7419L22.8083 35.5105L22.654 34.1854L21.3713 33.8188L20.8217 35.7419ZM17.3759 34.2835L18.3742 32.5505L17.1984 31.8731L16.1345 32.7154L17.3759 34.2835ZM15.2644 35.9551L14.023 34.387L14.0225 34.3874L15.2644 35.9551ZM12.9535 35.8244L11.5391 37.2385L12.9535 35.8244ZM10.051 32.9214L8.62889 34.3277L8.6367 34.3355L10.051 32.9214ZM9.92036 30.6101L8.35309 29.3676L8.35248 29.3684L9.92036 30.6101ZM8.28921 25.7286C8.66862 27.0297 9.19588 28.2869 9.86466 29.4692L13.3462 27.4997C12.832 26.5907 12.4239 25.6191 12.1293 24.6088L8.28921 25.7286ZM7.31018 26.8458L9.97878 27.1554L10.4397 23.182L7.77109 22.8725L7.31018 26.8458ZM4 23.1325C4 25.0307 5.42295 26.6246 7.30781 26.8456L7.77346 22.8728C7.8976 22.8873 8 22.9954 8 23.1325H4ZM4 19.0257V23.1325H8V19.0257H4ZM7.30781 15.3127C5.42294 15.5336 4 17.1276 4 19.0257H8C8 19.1628 7.8976 19.2709 7.77346 19.2855L7.30781 15.3127ZM9.84485 15.023L7.31381 15.312L7.76746 19.2862L10.2985 18.9972L9.84485 15.023ZM9.75288 12.4155C9.03638 13.7086 8.49038 15.0889 8.13137 16.5251L12.012 17.4951C12.2857 16.3999 12.7026 15.345 13.2516 14.3542L9.75288 12.4155ZM8.35118 12.6231L9.93308 14.6249L13.0714 12.1448L11.4895 10.143L8.35118 12.6231ZM8.6367 7.6576C7.28902 9.00552 7.17543 11.1384 8.35248 12.6247L11.4882 10.1414C11.5648 10.2381 11.5613 10.3898 11.4654 10.4858L8.6367 7.6576ZM11.5391 4.75463L8.6367 7.6576L11.4654 10.4858L14.3678 7.5828L11.5391 4.75463ZM16.5064 4.47035C15.0099 3.28477 12.8835 3.42476 11.547 4.74684L14.36 7.5906C14.2752 7.67444 14.1297 7.69061 14.0225 7.60568L16.5064 4.47035ZM18.3984 5.97048L16.507 4.47084L14.0219 7.60519L15.9133 9.10483L18.3984 5.97048ZM20.5108 3.96847C18.9698 4.38103 17.4992 5.00377 16.131 5.82017L18.1807 9.25514C19.2335 8.62693 20.3627 8.14902 21.5453 7.83239L20.5108 3.96847ZM19.3166 3.30929L19.0415 5.66881L23.0146 6.13206L23.2897 3.77254L19.3166 3.30929ZM23.0295 0C21.1309 0 19.5376 1.42367 19.3168 3.30817L23.2896 3.77365C23.2751 3.89711 23.1674 4 23.0295 4V0ZM27.1356 0H23.0295V4H27.1356V0ZM30.8483 3.30817C30.6275 1.42367 29.0341 0 27.1356 0V4C26.9977 4 26.89 3.89711 26.8755 3.77365L30.8483 3.30817ZM31.1236 5.66881L30.8484 3.30929L26.8754 3.77254L27.1505 6.13206L31.1236 5.66881ZM33.9258 5.75806C32.5876 4.97212 31.1563 4.37325 29.6574 3.96932L28.6166 7.83155C29.7725 8.14304 30.8723 8.60355 31.9001 9.20718L33.9258 5.75806ZM33.4933 4.47063L31.6706 5.91524L34.1552 9.05L35.9779 7.6054L33.4933 4.47063ZM38.4609 4.75463C37.113 3.40656 34.9799 3.29286 33.4936 4.47035L35.9775 7.60568C35.8805 7.68253 35.7282 7.67888 35.6322 7.5828L38.4609 4.75463ZM41.3564 7.65072L38.4609 4.75463L35.6322 7.5828L38.5277 10.4789L41.3564 7.65072ZM41.6407 12.6178C42.8258 11.1213 42.6859 8.99518 41.3642 7.65856L38.52 10.4711C38.4363 10.3864 38.4202 10.2414 38.5049 10.1345L41.6407 12.6178ZM40.1557 14.495L41.6413 12.617L38.5042 10.1354L37.0186 12.0133L40.1557 14.495ZM41.9798 16.3377C41.6045 14.9065 41.0434 13.545 40.3315 12.2758L36.8428 14.2325C37.3964 15.2196 37.8257 16.2658 38.1107 17.3524L41.9798 16.3377ZM42.6915 15.1406L40.2773 14.8586L39.8132 18.8315L42.2273 19.1136L42.6915 15.1406ZM46 18.8537C46 16.9556 44.5771 15.3616 42.6922 15.1407L42.2266 19.1135C42.1024 19.0989 42 18.9908 42 18.8537H46ZM46 22.9605V18.8537H42V22.9605H46ZM42.6922 26.6736C44.5771 26.4527 46 24.8587 46 22.9605H42C42 22.8234 42.1024 22.7153 42.2266 22.7008L42.6922 26.6736ZM40.2397 26.9561L42.6882 26.674L42.2305 22.7003L39.782 22.9824L40.2397 26.9561ZM40.2223 29.6025C40.965 28.318 41.5501 26.94 41.9416 25.491L38.0801 24.4475C37.7839 25.5437 37.3373 26.6009 36.7595 27.6003L40.2223 29.6025ZM41.6503 29.3788L40.0616 27.3633L36.9202 29.8395L38.5089 31.8551L41.6503 29.3788ZM41.3633 34.3424C42.711 32.9945 42.8246 30.8616 41.6475 29.3753L38.5118 31.8586C38.4352 31.7619 38.4387 31.6102 38.5346 31.5142L41.3633 34.3424ZM38.4609 37.2454L41.3633 34.3424L38.5346 31.5142L35.6322 34.4172L38.4609 37.2454ZM33.4936 37.5297C34.9902 38.7152 37.1165 38.5752 38.453 37.2532L35.64 34.4094C35.7248 34.3256 35.8703 34.3094 35.9775 34.3943L33.4936 37.5297ZM31.4517 35.9137L33.4944 37.5303L35.9767 34.3937L33.934 32.7771L31.4517 35.9137ZM29.504 37.7735C30.9652 37.3925 32.3629 36.8253 33.673 36.0887L31.7127 32.6021C30.6981 33.1725 29.6197 33.6096 28.4949 33.9028L29.504 37.7735ZM30.6836 38.6885L30.9863 36.0676L27.0127 35.6088L26.71 38.2297L30.6836 38.6885ZM26.9705 42C28.8691 42 30.4625 40.5763 30.6833 38.6918L26.7104 38.2263C26.7249 38.1029 26.8326 38 26.9705 38V42ZM22.8644 42H26.9705V38H22.8644V42ZM19.1517 38.6918C19.3725 40.5763 20.9659 42 22.8644 42V38C23.0023 38 23.1101 38.1029 23.1245 38.2263L19.1517 38.6918ZM18.8351 35.9732L19.1515 38.6904L23.1247 38.2278L22.8083 35.5105L18.8351 35.9732ZM16.3776 36.0165C17.6061 36.7242 18.9124 37.2763 20.2722 37.6649L21.3713 33.8188C20.3238 33.5195 19.3191 33.0948 18.3742 32.5505L16.3776 36.0165ZM16.5059 37.5232L18.6173 35.8516L16.1345 32.7154L14.023 34.387L16.5059 37.5232ZM11.5391 37.2385C12.887 38.5866 15.0201 38.7003 16.5064 37.5228L14.0225 34.3874C14.1195 34.3106 14.2718 34.3142 14.3678 34.4103L11.5391 37.2385ZM8.6367 34.3355L11.5391 37.2385L14.3678 34.4103L11.4654 31.5073L8.6367 34.3355ZM8.35248 29.3684C7.16735 30.8649 7.30721 32.9911 8.62891 34.3277L11.4732 31.5152C11.5569 31.5998 11.5729 31.7448 11.4882 31.8517L8.35248 29.3684ZM10.0382 27.242L8.35309 29.3676L11.4876 31.8525L13.1727 29.7269L10.0382 27.242ZM34 22C34 26.9706 29.9706 31 25 31V35C32.1797 35 38 29.1797 38 22H34ZM25 13C29.9706 13 34 17.0294 34 22H38C38 14.8203 32.1797 9 25 9V13ZM16 22C16 17.0294 20.0294 13 25 13V9C17.8203 9 12 14.8203 12 22H16ZM25 31C20.0294 31 16 26.9706 16 22H12C12 29.1797 17.8203 35 25 35V31Z" fill="#64BECE" mask="url(#path-2-inside-1_211_25425)"/>
</g>
<path d="M10.3 27.4286C9.11875 27.4286 8.13438 27.0402 7.34687 26.1987C6.49375 25.4219 6.1 24.4509 6.1 23.2857C6.1 22.1853 6.49375 21.2143 7.34687 20.3728C8.13438 19.596 9.11875 19.1429 10.3 19.1429C11.4156 19.1429 12.4 19.596 13.2531 20.3728C14.0406 21.2143 14.5 22.1853 14.5 23.2857C14.5 24.4509 14.0406 25.4219 13.2531 26.1987C12.4 27.0402 11.4156 27.4286 10.3 27.4286ZM39.7 27.4286C38.5188 27.4286 37.5344 27.0402 36.7469 26.1987C35.8938 25.4219 35.5 24.4509 35.5 23.2857C35.5 22.1853 35.8938 21.2143 36.7469 20.3728C37.5344 19.596 38.5188 19.1429 39.7 19.1429C40.8156 19.1429 41.8 19.596 42.6531 20.3728C43.4406 21.2143 43.9 22.1853 43.9 23.2857C43.9 24.4509 43.4406 25.4219 42.6531 26.1987C41.8 27.0402 40.8156 27.4286 39.7 27.4286ZM25 29.5C23.6875 29.5 22.4406 29.1763 21.325 28.529C20.1438 27.8817 19.2906 27.0402 18.6344 25.875C17.9781 24.7746 17.65 23.5446 17.65 22.25C17.65 20.9554 17.9781 19.7902 18.6344 18.625C19.2906 17.5246 20.1438 16.6183 21.325 15.971C22.4406 15.3237 23.6875 15 25 15C26.3125 15 27.4937 15.3237 28.675 15.971C29.7906 16.6183 30.7094 17.5246 31.3656 18.625C32.0219 19.7902 32.35 20.9554 32.35 22.25C32.35 23.5446 32.0219 24.7746 31.3656 25.875C30.7094 27.0402 29.7906 27.8817 28.675 28.529C27.4937 29.1763 26.3125 29.5 25 29.5ZM30.0531 31.5714C31.0962 31.5714 32.0979 31.8168 33.0581 32.2424C33.3061 32.3523 33.5513 32.4743 33.7938 32.6071C34.975 33.2545 35.8938 34.1607 36.55 35.3259C37.2062 36.4911 37.6 37.721 37.6 39.0156V40.8929C37.6 41.7991 37.2719 42.5112 36.6813 43.0938C36.025 43.7411 35.3031 44 34.45 44H15.55C14.6313 44 13.9094 43.7411 13.3188 43.0938C12.6625 42.5112 12.4 41.7991 12.4 40.8929V39.0156C12.4 37.721 12.7281 36.4911 13.3844 35.3259C14.0406 34.1607 14.9594 33.2545 16.1406 32.6071C16.2444 32.5503 16.3487 32.4954 16.4535 32.4426C17.542 31.8946 18.6898 31.5714 19.9469 31.5714H20.4719C21.9156 32.2835 23.425 32.6071 25 32.6071C26.5094 32.6071 28.0188 32.2835 29.5281 31.5714H30.0531Z" fill="white"/>
<path d="M39.5688 37.7857H43.9C44.425 37.7857 44.95 37.5915 45.3437 37.2031C45.7375 36.8147 46 36.2969 46 35.7143V33.6429C46 32.5424 45.5406 31.5714 44.7531 30.7299C43.9 29.9531 42.9156 29.5 41.8 29.5H37.6C36.4188 29.5 35.4344 29.9531 34.6469 30.7299C34.1987 31.1125 33.2535 31.9506 33.0581 32.2424M10.4313 37.7857H6.1C5.50938 37.7857 4.98438 37.5915 4.59063 37.2031C4.19687 36.8147 4 36.2969 4 35.7143V33.6429C4 32.5424 4.39375 31.5714 5.24688 30.7299C6.03438 29.9531 7.01875 29.5 8.2 29.5H12.4C13.5156 29.5 14.5 29.9531 15.3531 30.7299C15.7199 31.1539 16.4535 32.0901 16.4535 32.4426M16.4535 32.4426C16.3487 32.4954 16.2444 32.5503 16.1406 32.6071C14.9594 33.2545 14.0406 34.1607 13.3844 35.3259C12.7281 36.4911 12.4 37.721 12.4 39.0156V40.8929C12.4 41.7991 12.6625 42.5112 13.3188 43.0937C13.9094 43.7411 14.6313 44 15.55 44H34.45C35.3031 44 36.025 43.7411 36.6813 43.0937C37.2719 42.5112 37.6 41.7991 37.6 40.8929V39.0156C37.6 37.721 37.2063 36.4911 36.55 35.3259C35.8938 34.1607 34.975 33.2545 33.7938 32.6071C33.5513 32.4743 33.3061 32.3523 33.0581 32.2424M16.4535 32.4426C17.542 31.8946 18.6898 31.5714 19.9469 31.5714H20.4719C21.9156 32.2835 23.425 32.6071 25 32.6071C26.5094 32.6071 28.0188 32.2835 29.5281 31.5714H30.0531C31.0962 31.5714 32.0979 31.8168 33.0581 32.2424M10.3 27.4286C9.11875 27.4286 8.13438 27.0402 7.34688 26.1987C6.49375 25.4219 6.1 24.4509 6.1 23.2857C6.1 22.1853 6.49375 21.2143 7.34688 20.3728C8.13438 19.596 9.11875 19.1429 10.3 19.1429C11.4156 19.1429 12.4 19.596 13.2531 20.3728C14.0406 21.2143 14.5 22.1853 14.5 23.2857C14.5 24.4509 14.0406 25.4219 13.2531 26.1987C12.4 27.0402 11.4156 27.4286 10.3 27.4286ZM39.7 27.4286C38.5188 27.4286 37.5344 27.0402 36.7469 26.1987C35.8938 25.4219 35.5 24.4509 35.5 23.2857C35.5 22.1853 35.8938 21.2143 36.7469 20.3728C37.5344 19.596 38.5188 19.1429 39.7 19.1429C40.8156 19.1429 41.8 19.596 42.6531 20.3728C43.4406 21.2143 43.9 22.1853 43.9 23.2857C43.9 24.4509 43.4406 25.4219 42.6531 26.1987C41.8 27.0402 40.8156 27.4286 39.7 27.4286ZM25 29.5C23.6875 29.5 22.4406 29.1763 21.325 28.529C20.1438 27.8817 19.2906 27.0402 18.6344 25.875C17.9781 24.7746 17.65 23.5446 17.65 22.25C17.65 20.9554 17.9781 19.7902 18.6344 18.625C19.2906 17.5246 20.1438 16.6183 21.325 15.971C22.4406 15.3237 23.6875 15 25 15C26.3125 15 27.4938 15.3237 28.675 15.971C29.7906 16.6183 30.7094 17.5246 31.3656 18.625C32.0219 19.7902 32.35 20.9554 32.35 22.25C32.35 23.5446 32.0219 24.7746 31.3656 25.875C30.7094 27.0402 29.7906 27.8817 28.675 28.529C27.4938 29.1763 26.3125 29.5 25 29.5Z" stroke="#64BECE" stroke-width="2"/>
<circle cx="14.5" cy="43.5" r="7" fill="#64BECE" stroke="#64BECE" stroke-width="3"/>
<path d="M11 42.2L14.1111 45L19 41" stroke="white" stroke-width="3"/>
</svg>
