<svg width="47" height="45" viewBox="0 0 47 45" fill="none" xmlns="http://www.w3.org/2000/svg">
<path d="M1 1H26.8537L35 11.1083V43H1V1Z" fill="white" stroke="#64BECE" stroke-width="2"/>
<path d="M27.1644 11L27 1L35 11H27.1644Z" fill="#64BECE" stroke="#64BECE" stroke-width="1.8511" stroke-linejoin="round"/>
<rect x="6.92555" y="11.9256" width="2.1489" height="2.1489" fill="#64BECE" stroke="#64BECE" stroke-width="1.8511"/>
<rect x="6.92555" y="18.9256" width="2.1489" height="2.1489" fill="#64BECE" stroke="#64BECE" stroke-width="1.8511"/>
<rect x="6.92555" y="24.9256" width="2.1489" height="2.1489" fill="#64BECE" stroke="#64BECE" stroke-width="1.8511"/>
<rect x="6.92555" y="31.9256" width="2.1489" height="2.1489" fill="#64BECE" stroke="#64BECE" stroke-width="1.8511"/>
<path d="M18 12H12" stroke="#64BECE" stroke-width="2"/>
<path d="M26 20L11 20" stroke="#64BECE" stroke-width="2"/>
<path d="M26 26L11 26" stroke="#64BECE" stroke-width="2"/>
<path d="M26 33H11" stroke="#64BECE" stroke-width="2"/>
<circle cx="31" cy="27" r="11" fill="white" stroke="#64BECE" stroke-width="2"/>
<circle cx="31" cy="27" r="8.07445" fill="#64BECE" stroke="#64BECE" stroke-width="1.8511"/>
<path d="M44.8177 40.0026L40.0784 34L39.077 35.1269L37 36.8806L41.7667 42.4998C42.4699 43.3289 43.7116 43.4323 44.5423 42.7309C45.355 42.0446 45.4769 40.8374 44.8177 40.0026Z" fill="#64BECE" stroke="#64BECE" stroke-width="1.8511"/>
<path d="M27 25.5L30.5 29L36 24" stroke="white" stroke-width="3"/>
</svg>
