<svg width="107" height="99" viewBox="0 0 107 99" fill="none" xmlns="http://www.w3.org/2000/svg">
<g opacity="0.06">
<path d="M71.9446 71L74 57H2.0501L0 71H71.9446Z" fill="url(#paint0_linear_211_25414)"/>
<path d="M99.9994 71L102 57H88.0006L86 71H99.9994Z" fill="#004EC9"/>
<path d="M104.945 42L107 28H35.0553L33 42H104.945Z" fill="url(#paint1_linear_211_25414)"/>
<path d="M18.0013 42L20 28H5.99871L4 42H18.0013Z" fill="#004EC9"/>
<path d="M80.9309 14L83 0H25.0692L23 14H80.9309Z" fill="url(#paint2_linear_211_25414)"/>
<path d="M82.9314 99L85 85H27.0686L25 99H82.9314Z" fill="url(#paint3_linear_211_25414)"/>
</g>
<defs>
<linearGradient id="paint0_linear_211_25414" x1="1.00947" y1="63.9978" x2="71.4406" y2="74.3302" gradientUnits="userSpaceOnUse">
<stop stop-color="#0054DE" stop-opacity="0"/>
<stop offset="0.8166" stop-color="#0054DE"/>
</linearGradient>
<linearGradient id="paint1_linear_211_25414" x1="34.0138" y1="35.0018" x2="104.437" y2="45.3437" gradientUnits="userSpaceOnUse">
<stop offset="0.1933" stop-color="#0054DE"/>
<stop offset="1" stop-color="#0054DE" stop-opacity="0"/>
</linearGradient>
<linearGradient id="paint2_linear_211_25414" x1="24.0191" y1="6.9999" x2="80.7141" y2="15.3759" gradientUnits="userSpaceOnUse">
<stop offset="0.000300481" stop-color="#0054DE" stop-opacity="0"/>
<stop offset="0.8059" stop-color="#0054DE"/>
</linearGradient>
<linearGradient id="paint3_linear_211_25414" x1="26.0177" y1="91.9988" x2="82.7153" y2="100.37" gradientUnits="userSpaceOnUse">
<stop offset="0.1928" stop-color="#0054DE"/>
<stop offset="1" stop-color="#0054DE" stop-opacity="0"/>
</linearGradient>
</defs>
</svg>
