<svg width="49" height="52" viewBox="0 0 49 52" fill="none" xmlns="http://www.w3.org/2000/svg">
<path d="M12.8957 5H41C42.6569 5 44 6.34315 44 8V21.6344C44 23.2913 42.6569 24.6344 41 24.6344H8C6.34315 24.6344 5 25.9776 5 27.6344V40.0108H35.9755C37.6323 40.0108 38.9755 41.3539 38.9755 43.0108V49H26.0552" stroke="#64BECE" stroke-width="3"/>
<rect x="1" y="34" width="8" height="8" fill="white" stroke="#64BECE" stroke-width="2"/>
<path d="M3 36.9L4.94444 39L8 36" stroke="#64BECE" stroke-width="3"/>
<rect x="5" y="1" width="8" height="8" fill="white" stroke="#64BECE" stroke-width="2"/>
<path d="M7 3.9L8.94444 6L12 3" stroke="#64BECE" stroke-width="3"/>
<rect x="35" y="43" width="8" height="8" fill="white" stroke="#64BECE" stroke-width="2"/>
<path d="M37 45.9L38.9444 48L42 45" stroke="#64BECE" stroke-width="3"/>
<rect x="40" y="9" width="8" height="8" fill="white" stroke="#64BECE" stroke-width="2"/>
<path d="M42 11.9L43.9444 14L47 11" stroke="#64BECE" stroke-width="3"/>
<mask id="path-10-inside-1_211_25522" fill="white">
<path fill-rule="evenodd" clip-rule="evenodd" d="M16.6878 29.424C16.2986 28.7361 15.991 28.0029 15.7692 27.2426L14.0136 27.0389C13.4344 26.971 13 26.4823 13 25.903V23.2011C13 22.6218 13.4344 22.1331 14.0136 22.0652L15.6787 21.8751C15.8869 21.0424 16.2036 20.2413 16.6199 19.49L15.5792 18.1731C15.2172 17.716 15.2534 17.0643 15.6652 16.6524L17.5747 14.7426C17.9864 14.3353 18.638 14.2945 19.095 14.6566L20.3394 15.6432C21.1357 15.168 21.991 14.8059 22.8869 14.5661L23.0679 13.0138C23.1357 12.4345 23.6244 12 24.2036 12H26.905C27.4842 12 27.9728 12.4345 28.0407 13.0138L28.2217 14.5661C29.095 14.8014 29.9276 15.1499 30.7059 15.607L31.905 14.6566C32.362 14.2945 33.0136 14.3307 33.4253 14.7426L35.3303 16.6479C35.7376 17.0597 35.7783 17.7114 35.4163 18.1685L34.4389 19.4041C34.8552 20.1463 35.181 20.9383 35.3982 21.7665L36.9864 21.952C37.5656 22.0199 38 22.5087 38 23.088V25.7898C38 26.3691 37.5656 26.8579 36.9864 26.9258L35.3756 27.1113C35.1493 27.9486 34.81 28.7496 34.3756 29.5009L35.4208 30.8269C35.7828 31.284 35.7466 31.9357 35.3348 32.3476L33.4253 34.2574C33.0136 34.6647 32.362 34.7055 31.905 34.3434L30.5611 33.2799C29.7964 33.7098 28.9819 34.0402 28.1312 34.2619L27.9321 35.9862C27.8643 36.5655 27.3756 37 26.7964 37H24.095C23.5158 37 23.0271 36.5655 22.9593 35.9862L22.7511 34.1986C21.9593 33.9723 21.1991 33.651 20.4842 33.2391L19.095 34.3389C18.638 34.7009 17.9864 34.6647 17.5747 34.2529L15.6652 32.343C15.2579 31.9312 15.2172 31.2795 15.5792 30.8224L16.6878 29.424ZM25.5 30C28.5376 30 31 27.5376 31 24.5C31 21.4624 28.5376 19 25.5 19C22.4624 19 20 21.4624 20 24.5C20 27.5376 22.4624 30 25.5 30Z"/>
</mask>
<path fill-rule="evenodd" clip-rule="evenodd" d="M16.6878 29.424C16.2986 28.7361 15.991 28.0029 15.7692 27.2426L14.0136 27.0389C13.4344 26.971 13 26.4823 13 25.903V23.2011C13 22.6218 13.4344 22.1331 14.0136 22.0652L15.6787 21.8751C15.8869 21.0424 16.2036 20.2413 16.6199 19.49L15.5792 18.1731C15.2172 17.716 15.2534 17.0643 15.6652 16.6524L17.5747 14.7426C17.9864 14.3353 18.638 14.2945 19.095 14.6566L20.3394 15.6432C21.1357 15.168 21.991 14.8059 22.8869 14.5661L23.0679 13.0138C23.1357 12.4345 23.6244 12 24.2036 12H26.905C27.4842 12 27.9728 12.4345 28.0407 13.0138L28.2217 14.5661C29.095 14.8014 29.9276 15.1499 30.7059 15.607L31.905 14.6566C32.362 14.2945 33.0136 14.3307 33.4253 14.7426L35.3303 16.6479C35.7376 17.0597 35.7783 17.7114 35.4163 18.1685L34.4389 19.4041C34.8552 20.1463 35.181 20.9383 35.3982 21.7665L36.9864 21.952C37.5656 22.0199 38 22.5087 38 23.088V25.7898C38 26.3691 37.5656 26.8579 36.9864 26.9258L35.3756 27.1113C35.1493 27.9486 34.81 28.7496 34.3756 29.5009L35.4208 30.8269C35.7828 31.284 35.7466 31.9357 35.3348 32.3476L33.4253 34.2574C33.0136 34.6647 32.362 34.7055 31.905 34.3434L30.5611 33.2799C29.7964 33.7098 28.9819 34.0402 28.1312 34.2619L27.9321 35.9862C27.8643 36.5655 27.3756 37 26.7964 37H24.095C23.5158 37 23.0271 36.5655 22.9593 35.9862L22.7511 34.1986C21.9593 33.9723 21.1991 33.651 20.4842 33.2391L19.095 34.3389C18.638 34.7009 17.9864 34.6647 17.5747 34.2529L15.6652 32.343C15.2579 31.9312 15.2172 31.2795 15.5792 30.8224L16.6878 29.424ZM25.5 30C28.5376 30 31 27.5376 31 24.5C31 21.4624 28.5376 19 25.5 19C22.4624 19 20 21.4624 20 24.5C20 27.5376 22.4624 30 25.5 30Z" fill="#64BECE"/>
<path d="M15.7692 27.2426L17.6893 26.6827L17.3178 25.4088L15.9997 25.2559L15.7692 27.2426ZM16.6878 29.424L18.2551 30.6664L19.0915 29.6112L18.4286 28.4392L16.6878 29.424ZM14.0136 27.0389L13.7808 29.0253L13.7831 29.0256L14.0136 27.0389ZM14.0136 22.0652L13.7867 20.0781L13.7808 20.0788L14.0136 22.0652ZM15.6787 21.8751L15.9056 23.8622L17.2829 23.705L17.619 22.3601L15.6787 21.8751ZM16.6199 19.49L18.3693 20.4594L19.0147 19.2947L18.1891 18.25L16.6199 19.49ZM15.5792 18.1731L17.1484 16.933L17.1471 16.9314L15.5792 18.1731ZM15.6652 16.6524L14.2508 15.2383L14.2508 15.2383L15.6652 16.6524ZM17.5747 14.7426L16.1681 13.3207L16.1603 13.3285L17.5747 14.7426ZM19.095 14.6566L20.3376 13.0894L20.337 13.0889L19.095 14.6566ZM20.3394 15.6432L19.0968 17.2104L20.1786 18.0681L21.3642 17.3607L20.3394 15.6432ZM22.8869 14.5661L23.4041 16.498L24.7161 16.1468L24.8734 14.7977L22.8869 14.5661ZM23.0679 13.0138L21.0815 12.781L21.0813 12.7821L23.0679 13.0138ZM28.0407 13.0138L30.0273 12.7821L30.0271 12.781L28.0407 13.0138ZM28.2217 14.5661L26.2352 14.7977L26.3922 16.1444L27.7013 16.4972L28.2217 14.5661ZM30.7059 15.607L29.693 17.3315L30.8744 18.0254L31.9482 17.1744L30.7059 15.607ZM31.905 14.6566L30.663 13.0889L30.6627 13.0892L31.905 14.6566ZM33.4253 14.7426L32.011 16.1567L32.011 16.1567L33.4253 14.7426ZM35.3303 16.6479L36.7525 15.2416L36.7447 15.2338L35.3303 16.6479ZM35.4163 18.1685L33.8484 16.9269L33.8477 16.9277L35.4163 18.1685ZM34.4389 19.4041L32.8704 18.1632L32.0392 19.2139L32.6946 20.3824L34.4389 19.4041ZM35.3982 21.7665L33.4636 22.2738L33.81 23.5945L35.1661 23.753L35.3982 21.7665ZM36.9864 21.952L37.2192 19.9656L37.2185 19.9655L36.9864 21.952ZM36.9864 26.9258L37.2153 28.9126L37.2193 28.9122L36.9864 26.9258ZM35.3756 27.1113L35.1467 25.1245L33.7988 25.2797L33.4448 26.5896L35.3756 27.1113ZM34.3756 29.5009L32.6442 28.4998L31.9653 29.6739L32.8049 30.739L34.3756 29.5009ZM35.4208 30.8269L33.8501 32.065L33.8529 32.0686L35.4208 30.8269ZM35.3348 32.3476L33.9205 30.9335L35.3348 32.3476ZM33.4253 34.2574L34.8319 35.6793L34.8397 35.6715L33.4253 34.2574ZM31.905 34.3434L33.1469 32.7757L33.1461 32.7751L31.905 34.3434ZM30.5611 33.2799L31.8022 31.7116L30.7503 30.8791L29.5809 31.5365L30.5611 33.2799ZM28.1312 34.2619L27.6267 32.3266L26.3015 32.6721L26.1444 34.0325L28.1312 34.2619ZM27.9321 35.9862L29.9185 36.219L29.9189 36.2156L27.9321 35.9862ZM22.9593 35.9862L20.9727 36.2175L20.9729 36.219L22.9593 35.9862ZM22.7511 34.1986L24.7377 33.9673L24.5834 32.6421L23.3007 32.2756L22.7511 34.1986ZM20.4842 33.2391L21.4825 31.5061L20.3067 30.8288L19.2427 31.6711L20.4842 33.2391ZM19.095 34.3389L17.8536 32.7708L17.8531 32.7712L19.095 34.3389ZM17.5747 34.2529L18.989 32.8388L18.989 32.8388L17.5747 34.2529ZM15.6652 32.343L14.243 33.7493L14.2508 33.7571L15.6652 32.343ZM15.5792 30.8224L14.0119 29.58L14.0113 29.5807L15.5792 30.8224ZM13.8492 27.8025C14.1133 28.7082 14.4806 29.5842 14.947 30.4087L18.4286 28.4392C18.1167 27.8879 17.8686 27.2976 17.6893 26.6827L13.8492 27.8025ZM13.7831 29.0256L15.5388 29.2293L15.9997 25.2559L14.244 25.0522L13.7831 29.0256ZM11 25.903C11 27.4999 12.1971 28.8397 13.7808 29.0253L14.2464 25.0525C14.6717 25.1024 15 25.4646 15 25.903H11ZM11 23.2011V25.903H15V23.2011H11ZM13.7808 20.0788C12.1971 20.2644 11 21.6042 11 23.2011H15C15 23.6395 14.6717 24.0017 14.2464 24.0516L13.7808 20.0788ZM15.4519 19.888L13.7867 20.0781L14.2404 24.0523L15.9056 23.8622L15.4519 19.888ZM14.8705 18.5207C14.3705 19.4231 13.9892 20.3868 13.7384 21.3901L17.619 22.3601C17.7846 21.6979 18.0367 21.0595 18.3693 20.4594L14.8705 18.5207ZM14.01 19.4131L15.0507 20.7301L18.1891 18.25L17.1484 16.933L14.01 19.4131ZM14.2508 15.2383C13.1173 16.3721 13.0225 18.1661 14.0113 19.4147L17.1471 16.9314C17.4119 17.2658 17.3895 17.7564 17.0795 18.0665L14.2508 15.2383ZM16.1603 13.3285L14.2508 15.2383L17.0795 18.0665L18.989 16.1567L16.1603 13.3285ZM20.337 13.0889C19.0781 12.0916 17.2906 12.2104 16.1682 13.3207L18.9812 16.1645C18.6823 16.4601 18.1979 16.4975 17.8531 16.2243L20.337 13.0889ZM21.5819 14.076L20.3376 13.0894L17.8525 16.2238L19.0968 17.2104L21.5819 14.076ZM22.3696 12.6341C21.2945 12.9219 20.2686 13.3564 19.3145 13.9257L21.3642 17.3607C22.0029 16.9796 22.6874 16.6899 23.4041 16.498L22.3696 12.6341ZM21.0813 12.7821L20.9003 14.3345L24.8734 14.7977L25.0544 13.2454L21.0813 12.7821ZM24.2036 10C22.6062 10 21.267 11.1977 21.0815 12.781L25.0543 13.2465C25.0045 13.6712 24.6427 14 24.2036 14V10ZM26.905 10H24.2036V14H26.905V10ZM30.0271 12.781C29.8416 11.1977 28.5024 10 26.905 10V14C26.4659 14 26.1041 13.6712 26.0543 13.2465L30.0271 12.781ZM30.2083 14.3345L30.0273 12.7821L26.0542 13.2454L26.2352 14.7977L30.2083 14.3345ZM31.7187 13.8824C30.7853 13.3342 29.7869 12.9165 28.7421 12.635L27.7013 16.4972C28.4031 16.6863 29.0699 16.9656 29.693 17.3315L31.7187 13.8824ZM30.6627 13.0892L29.4636 14.0396L31.9482 17.1744L33.1473 16.224L30.6627 13.0892ZM34.8397 13.3285C33.706 12.1946 31.9117 12.0997 30.663 13.0889L33.1469 16.2243C32.8123 16.4894 32.3212 16.4669 32.011 16.1567L34.8397 13.3285ZM36.7447 15.2338L34.8397 13.3285L32.011 16.1567L33.916 18.062L36.7447 15.2338ZM36.9842 19.4102C37.9811 18.1514 37.8624 16.3641 36.7524 15.2416L33.9082 18.0542C33.6127 17.7554 33.5755 17.2715 33.8484 16.9269L36.9842 19.4102ZM36.0075 20.6449L36.9848 19.4094L33.8477 16.9277L32.8704 18.1632L36.0075 20.6449ZM37.3328 21.2591C37.0704 20.2586 36.6787 19.309 36.1833 18.4257L32.6946 20.3824C33.0317 20.9836 33.2916 21.6179 33.4636 22.2738L37.3328 21.2591ZM37.2185 19.9655L35.6303 19.78L35.1661 23.753L36.7543 23.9385L37.2185 19.9655ZM40 23.088C40 21.4911 38.8029 20.1512 37.2192 19.9656L36.7536 23.9384C36.3283 23.8886 36 23.5263 36 23.088H40ZM40 25.7898V23.088H36V25.7898H40ZM37.2193 28.9122C38.8029 28.7266 40 27.3867 40 25.7898H36C36 25.3515 36.3283 24.9892 36.7536 24.9394L37.2193 28.9122ZM35.6044 29.0982L37.2153 28.9126L36.7576 24.9389L35.1467 25.1245L35.6044 29.0982ZM36.107 30.502C36.6238 29.6082 37.0324 28.6467 37.3063 27.6331L33.4448 26.5896C33.2662 27.2505 32.9961 27.891 32.6442 28.4998L36.107 30.502ZM36.9915 29.5888L35.9463 28.2628L32.8049 30.739L33.8501 32.065L36.9915 29.5888ZM36.7492 33.7617C37.8827 32.6279 37.9775 30.8339 36.9887 29.5853L33.8529 32.0686C33.5881 31.7342 33.6105 31.2436 33.9205 30.9335L36.7492 33.7617ZM34.8397 35.6715L36.7492 33.7617L33.9205 30.9335L32.011 32.8433L34.8397 35.6715ZM30.663 35.9111C31.9219 36.9084 33.7094 36.7896 34.8318 35.6793L32.0188 32.8355C32.3177 32.5399 32.8021 32.5025 33.1469 32.7757L30.663 35.9111ZM29.32 34.8482L30.6638 35.9117L33.1461 32.7751L31.8022 31.7116L29.32 34.8482ZM28.6357 36.1973C29.6546 35.9317 30.6288 35.5362 31.5413 35.0232L29.5809 31.5365C28.964 31.8834 28.3091 32.1487 27.6267 32.3266L28.6357 36.1973ZM29.9189 36.2156L30.118 34.4914L26.1444 34.0325L25.9453 35.7568L29.9189 36.2156ZM26.7964 39C28.3938 39 29.733 37.8023 29.9185 36.219L25.9457 35.7535C25.9955 35.3288 26.3573 35 26.7964 35V39ZM24.095 39H26.7964V35H24.095V39ZM20.9729 36.219C21.1584 37.8023 22.4976 39 24.095 39V35C24.5341 35 24.8959 35.3288 24.9457 35.7535L20.9729 36.219ZM20.7646 34.4299L20.9727 36.2175L24.9459 35.7549L24.7377 33.9673L20.7646 34.4299ZM19.4858 34.9722C20.3426 35.4657 21.2536 35.8507 22.2016 36.1216L23.3007 32.2756C22.665 32.0939 22.0556 31.8363 21.4825 31.5061L19.4858 34.9722ZM20.3364 35.907L21.7256 34.8072L19.2427 31.6711L17.8536 32.7708L20.3364 35.907ZM16.1603 35.667C17.294 36.8009 19.0883 36.8958 20.337 35.9066L17.8531 32.7712C18.1877 32.5061 18.6788 32.5286 18.989 32.8388L16.1603 35.667ZM14.2508 33.7571L16.1603 35.667L18.989 32.8388L17.0795 30.929L14.2508 33.7571ZM14.0113 29.5807C13.0144 30.8396 13.1331 32.6268 14.243 33.7493L17.0873 30.9368C17.3827 31.2356 17.42 31.7195 17.1471 32.0641L14.0113 29.5807ZM15.1205 28.1815L14.0119 29.58L17.1465 32.0648L18.2551 30.6664L15.1205 28.1815ZM29 24.5C29 26.433 27.433 28 25.5 28V32C29.6421 32 33 28.6421 33 24.5H29ZM25.5 21C27.433 21 29 22.567 29 24.5H33C33 20.3579 29.6421 17 25.5 17V21ZM22 24.5C22 22.567 23.567 21 25.5 21V17C21.3579 17 18 20.3579 18 24.5H22ZM25.5 28C23.567 28 22 26.433 22 24.5H18C18 28.6421 21.3579 32 25.5 32V28Z" fill="#64BECE" mask="url(#path-10-inside-1_211_25522)"/>
<circle cx="26" cy="25" r="6" fill="white"/>
<path d="M27 50V47L23 48.5L27 50Z" fill="#64BECE"/>
</svg>
