<svg width="53" height="47" viewBox="0 0 53 47" fill="none" xmlns="http://www.w3.org/2000/svg">
<g opacity="0.6">
<path d="M44.1906 38.2857H49.45C50.0875 38.2857 50.725 38.0446 51.2031 37.5625C51.6812 37.0804 52 36.4375 52 35.7143V33.1429C52 31.7768 51.4422 30.5714 50.4859 29.5268C49.45 28.5625 48.2547 28 46.9 28H41.8C40.3656 28 39.1703 28.5625 38.2141 29.5268C37.6698 30.0017 36.5221 31.0422 36.2849 31.4044M8.80938 38.2857H3.55C2.83281 38.2857 2.19531 38.0446 1.71719 37.5625C1.23906 37.0804 1 36.4375 1 35.7143V33.1429C1 31.7768 1.47813 30.5714 2.51406 29.5268C3.47031 28.5625 4.66563 28 6.1 28H11.2C12.5547 28 13.75 28.5625 14.7859 29.5268C15.2313 30.0531 16.1221 31.2153 16.1221 31.6529M16.1221 31.6529C15.9948 31.7184 15.8682 31.7866 15.7422 31.8571C14.3078 32.6607 13.1922 33.7857 12.3953 35.2321C11.5984 36.6786 11.2 38.2054 11.2 39.8125V42.1429C11.2 43.2679 11.5188 44.1518 12.3156 44.875C13.0328 45.6786 13.9094 46 15.025 46H37.975C39.0109 46 39.8875 45.6786 40.6844 44.875C41.4016 44.1518 41.8 43.2679 41.8 42.1429V39.8125C41.8 38.2054 41.3219 36.6786 40.525 35.2321C39.7281 33.7857 38.6125 32.6607 37.1781 31.8571C36.8837 31.6922 36.586 31.5408 36.2849 31.4044M16.1221 31.6529C17.4438 30.9726 18.8376 30.5714 20.3641 30.5714H21.0016C22.7547 31.4554 24.5875 31.8571 26.5 31.8571C28.3328 31.8571 30.1656 31.4554 31.9984 30.5714H32.6359C33.9026 30.5714 35.1189 30.876 36.2849 31.4044M8.65 25.4286C7.21563 25.4286 6.02031 24.9464 5.06406 23.9018C4.02812 22.9375 3.55 21.7321 3.55 20.2857C3.55 18.9196 4.02812 17.7143 5.06406 16.6696C6.02031 15.7054 7.21563 15.1429 8.65 15.1429C10.0047 15.1429 11.2 15.7054 12.2359 16.6696C13.1922 17.7143 13.75 18.9196 13.75 20.2857C13.75 21.7321 13.1922 22.9375 12.2359 23.9018C11.2 24.9464 10.0047 25.4286 8.65 25.4286ZM44.35 25.4286C42.9156 25.4286 41.7203 24.9464 40.7641 23.9018C39.7281 22.9375 39.25 21.7321 39.25 20.2857C39.25 18.9196 39.7281 17.7143 40.7641 16.6696C41.7203 15.7054 42.9156 15.1429 44.35 15.1429C45.7047 15.1429 46.9 15.7054 47.9359 16.6696C48.8922 17.7143 49.45 18.9196 49.45 20.2857C49.45 21.7321 48.8922 22.9375 47.9359 23.9018C46.9 24.9464 45.7047 25.4286 44.35 25.4286ZM26.5 28C24.9062 28 23.3922 27.5982 22.0375 26.7946C20.6031 25.9911 19.5672 24.9464 18.7703 23.5C17.9734 22.1339 17.575 20.6071 17.575 19C17.575 17.3929 17.9734 15.9464 18.7703 14.5C19.5672 13.1339 20.6031 12.0089 22.0375 11.2054C23.3922 10.4018 24.9062 10 26.5 10C28.0937 10 29.5281 10.4018 30.9625 11.2054C32.3172 12.0089 33.4328 13.1339 34.2297 14.5C35.0266 15.9464 35.425 17.3929 35.425 19C35.425 20.6071 35.0266 22.1339 34.2297 23.5C33.4328 24.9464 32.3172 25.9911 30.9625 26.7946C29.5281 27.5982 28.0937 28 26.5 28Z" stroke="#64BECE" stroke-width="2"/>
<g filter="url(#filter0_b_211_25453)">
<mask id="path-2-inside-1_211_25453" fill="white">
<path fill-rule="evenodd" clip-rule="evenodd" d="M12 1.75057e-10C11.4477 0 11 0.447715 11 1L11 12C11 12.5523 11.4477 13 12 13L13 13L13 15L17.4058 13L27 13C27.5523 13 28 12.5523 28 12L28 1C28 0.447715 27.5523 2.89759e-09 27 2.80091e-09L12 1.75057e-10Z"/>
</mask>
<path fill-rule="evenodd" clip-rule="evenodd" d="M12 1.75057e-10C11.4477 0 11 0.447715 11 1L11 12C11 12.5523 11.4477 13 12 13L13 13L13 15L17.4058 13L27 13C27.5523 13 28 12.5523 28 12L28 1C28 0.447715 27.5523 2.89759e-09 27 2.80091e-09L12 1.75057e-10Z" fill="#64BECE"/>
<path d="M13 13L14.8511 13L14.8511 11.1489L13 11.1489L13 13ZM13 15L11.1489 15L11.1489 17.8732L13.7652 16.6856L13 15ZM17.4058 13L17.4058 11.1489L17.0053 11.1489L16.6406 11.3144L17.4058 13ZM12.8511 1C12.8511 1.47005 12.4701 1.8511 12 1.8511L12 -1.8511C10.4254 -1.8511 9.1489 -0.574621 9.1489 1L12.8511 1ZM12.8511 12L12.8511 1L9.1489 1L9.1489 12L12.8511 12ZM12 11.1489C12.4701 11.1489 12.8511 11.5299 12.8511 12L9.1489 12C9.1489 13.5746 10.4254 14.8511 12 14.8511L12 11.1489ZM13 11.1489L12 11.1489L12 14.8511L13 14.8511L13 11.1489ZM11.1489 13L11.1489 15L14.8511 15L14.8511 13L11.1489 13ZM13.7652 16.6856L18.171 14.6856L16.6406 11.3144L12.2348 13.3144L13.7652 16.6856ZM27 11.1489L17.4058 11.1489L17.4058 14.8511L27 14.8511L27 11.1489ZM26.1489 12C26.1489 11.5299 26.5299 11.1489 27 11.1489L27 14.8511C28.5746 14.8511 29.8511 13.5746 29.8511 12L26.1489 12ZM26.1489 1L26.1489 12L29.8511 12L29.8511 1L26.1489 1ZM27 1.8511C26.5299 1.8511 26.1489 1.47005 26.1489 1L29.8511 1C29.8511 -0.574622 28.5746 -1.8511 27 -1.8511L27 1.8511ZM12 1.8511L27 1.8511L27 -1.8511L12 -1.8511L12 1.8511Z" fill="#64BECE" mask="url(#path-2-inside-1_211_25453)"/>
</g>
<path d="M15 5H25" stroke="#02589D" stroke-width="3"/>
<path d="M15 8H19" stroke="#02589D" stroke-width="3"/>
<g filter="url(#filter1_b_211_25453)">
<mask id="path-6-inside-2_211_25453" fill="white">
<path fill-rule="evenodd" clip-rule="evenodd" d="M49 3C49.5523 3 50 3.44772 50 4L50 11C50 11.5523 49.5523 12 49 12L48 12L48 14L44.3285 12L35 12C34.4477 12 34 11.5523 34 11L34 4C34 3.44772 34.4477 3 35 3L49 3Z"/>
</mask>
<path fill-rule="evenodd" clip-rule="evenodd" d="M49 3C49.5523 3 50 3.44772 50 4L50 11C50 11.5523 49.5523 12 49 12L48 12L48 14L44.3285 12L35 12C34.4477 12 34 11.5523 34 11L34 4C34 3.44772 34.4477 3 35 3L49 3Z" fill="#64BECE"/>
<path d="M49 12L49 10.1489L49 12ZM48 12L46.1489 12L46.1489 10.1489L48 10.1489L48 12ZM48 14L49.8511 14L49.8511 17.1163L47.1145 15.6256L48 14ZM44.3285 12L44.3285 10.1489L44.8 10.1489L45.214 10.3744L44.3285 12ZM35 12L35 10.1489L35 12ZM48.1489 4C48.1489 4.47005 48.5299 4.8511 49 4.8511L49 1.1489C50.5746 1.1489 51.8511 2.42538 51.8511 4L48.1489 4ZM48.1489 11L48.1489 4L51.8511 4L51.8511 11L48.1489 11ZM49 10.1489C48.5299 10.1489 48.1489 10.5299 48.1489 11L51.8511 11C51.8511 12.5746 50.5746 13.8511 49 13.8511L49 10.1489ZM48 10.1489L49 10.1489L49 13.8511L48 13.8511L48 10.1489ZM49.8511 12L49.8511 14L46.1489 14L46.1489 12L49.8511 12ZM47.1145 15.6256L43.443 13.6256L45.214 10.3744L48.8855 12.3744L47.1145 15.6256ZM35 10.1489L44.3285 10.1489L44.3285 13.8511L35 13.8511L35 10.1489ZM35.8511 11C35.8511 10.5299 35.4701 10.1489 35 10.1489L35 13.8511C33.4254 13.8511 32.1489 12.5746 32.1489 11L35.8511 11ZM35.8511 4L35.8511 11L32.1489 11L32.1489 4L35.8511 4ZM35 4.8511C35.4701 4.8511 35.8511 4.47005 35.8511 4L32.1489 4C32.1489 2.42538 33.4254 1.1489 35 1.1489L35 4.8511ZM49 4.8511L35 4.8511L35 1.1489L49 1.1489L49 4.8511Z" fill="#64BECE" mask="url(#path-6-inside-2_211_25453)"/>
</g>
<circle cx="40" cy="8" r="1" fill="#035A9F"/>
<circle cx="44" cy="8" r="1" fill="#035A9F"/>
</g>
<defs>
<filter id="filter0_b_211_25453" x="-29.9263" y="-40.9263" width="98.8525" height="96.8525" filterUnits="userSpaceOnUse" color-interpolation-filters="sRGB">
<feFlood flood-opacity="0" result="BackgroundImageFix"/>
<feGaussianBlur in="BackgroundImageFix" stdDeviation="20.4631"/>
<feComposite in2="SourceAlpha" operator="in" result="effect1_backgroundBlur_211_25453"/>
<feBlend mode="normal" in="SourceGraphic" in2="effect1_backgroundBlur_211_25453" result="shape"/>
</filter>
<filter id="filter1_b_211_25453" x="-6.92626" y="-37.9263" width="97.8525" height="92.8525" filterUnits="userSpaceOnUse" color-interpolation-filters="sRGB">
<feFlood flood-opacity="0" result="BackgroundImageFix"/>
<feGaussianBlur in="BackgroundImageFix" stdDeviation="20.4631"/>
<feComposite in2="SourceAlpha" operator="in" result="effect1_backgroundBlur_211_25453"/>
<feBlend mode="normal" in="SourceGraphic" in2="effect1_backgroundBlur_211_25453" result="shape"/>
</filter>
</defs>
</svg>
